# xmcd
#
# Track frame offsets:
#	150
#	15402
#	24250
#	35945
#	49735
#	60320
#	71670
#	81972
#	94570
#	108492
#
# Disc length: 1637 seconds
#
# Revision: 1
# Processed by: cddbd v1.5.2PL0 Copyright (c) Steve Scherf et al.
# Submitted via: audiograbber 1.83.01
#
DISCID=7706630a
DTITLE=Various Artist - Collection - Vol. 1
DYEAR=1900
DGENRE=R&B
TTITLE0=James Brown - Please, Please, Please
TTITLE1=The Marathons - Peanut Butter
TTITLE2=The Vibrations - The Watusi
TTITLE3=The Sensations - Let Me In
TTITLE4=Clarence "Frogman" Henry - Ain't Got No Home
TTITLE5=Dave "Baby" Cortez - Rinky Dink
TTITLE6=Dale Hawkins - Susie-Q
TTITLE7=Fontella BAss - Rescue Me
TTITLE8=Lee Andrews and The Hearts - Try The Impossible
TTITLE9=The Moonglows - Sincerely
EXTD=
EXTT0=
EXTT1=
EXTT2=
EXTT3=
EXTT4=
EXTT5=
EXTT6=
EXTT7=
EXTT8=
EXTT9=
PLAYORDER=
